<svg width="348" height="80" viewBox="0 0 348 80" fill="none" xmlns="http://www.w3.org/2000/svg">
<path d="M49.4935 0.958464C49.6782 0.268875 50.3871 -0.140359 51.0766 0.0444164C51.7662 0.229191 52.1755 0.938004 51.9907 1.62759L31.2477 79.0416C31.0629 79.7312 30.3541 80.1404 29.6645 79.9556C28.9749 79.7709 28.5657 79.062 28.7504 78.3725L49.4935 0.958464Z" fill="white"/>
<path d="M67.7921 10.7504C68.2969 10.2456 69.1154 10.2456 69.6202 10.7504C70.125 11.2552 70.125 12.0737 69.6202 12.5785L12.9493 69.2495C12.4444 69.7543 11.626 69.7543 11.1212 69.2495C10.6163 68.7447 10.6163 67.9262 11.1212 67.4214L67.7921 10.7504Z" fill="white"/>
<path d="M78.7431 28.3799C79.4327 28.1951 80.1415 28.6043 80.3263 29.2939C80.511 29.9835 80.1018 30.6923 79.4122 30.8771L1.99823 51.6201C1.30864 51.8049 0.599825 51.3957 0.41505 50.7061C0.230275 50.0165 0.639508 49.3077 1.3291 49.1229L78.7431 28.3799Z" fill="white"/>
<path d="M79.4121 49.1229C80.1017 49.3077 80.511 50.0165 80.3262 50.7061C80.1414 51.3957 79.4326 51.8049 78.743 51.6202L1.32902 30.8771C0.639431 30.6924 0.230198 29.9836 0.414973 29.294C0.599748 28.6044 1.30856 28.1951 1.99815 28.3799L79.4121 49.1229Z" fill="white"/>
<path d="M69.6202 67.4214C70.125 67.9263 70.125 68.7447 69.6202 69.2495C69.1154 69.7544 68.2969 69.7544 67.7921 69.2495L11.1211 12.5786C10.6163 12.0738 10.6163 11.2553 11.1211 10.7505C11.6259 10.2457 12.4444 10.2457 12.9492 10.7505L69.6202 67.4214Z" fill="white"/>
<path d="M51.9907 78.3724C52.1755 79.062 51.7663 79.7708 51.0767 79.9556C50.3871 80.1404 49.6783 79.7311 49.4935 79.0415L28.7505 1.62754C28.5657 0.937955 28.9749 0.229142 29.6645 0.0443671C30.3541 -0.140408 31.0629 0.268825 31.2477 0.958415L51.9907 78.3724Z" fill="white"/>
<path fill-rule="evenodd" clip-rule="evenodd" d="M39.0782 2.51291C38.3643 2.51291 37.7856 3.09165 37.7856 3.80557V17.9516C37.7856 18.729 38.4671 19.3274 39.2434 19.2857C39.6167 19.2656 39.9927 19.2555 40.371 19.2555C40.7493 19.2555 41.1252 19.2656 41.4984 19.2857C42.2747 19.3274 42.9562 18.729 42.9562 17.9516V3.80557C42.9562 3.09165 42.3775 2.51291 41.6636 2.51291H39.0782ZM49.155 19.6148C48.7665 20.2877 49.0571 21.1462 49.7494 21.499C50.4204 21.841 51.0703 22.2185 51.6965 22.6291C52.3481 23.0563 53.2404 22.88 53.63 22.2052L60.7071 9.94735C61.064 9.32908 60.8522 8.53851 60.2339 8.18155L57.995 6.88889C57.3767 6.53193 56.5861 6.74376 56.2292 7.36203L49.155 19.6148ZM58.1501 26.7499C57.4771 27.1385 57.2996 28.0273 57.7232 28.6788C58.1314 29.3065 58.5064 29.9578 58.8458 30.6301C59.1969 31.3257 60.0578 31.6191 60.7326 31.2295L73.0089 24.1417C73.6272 23.7848 73.839 22.9942 73.482 22.3759L72.1894 20.137C71.8324 19.5187 71.0418 19.3069 70.4236 19.6638L58.1501 26.7499ZM62.3606 37.4147C61.5848 37.4147 60.9869 38.0936 61.0264 38.8684C61.0444 39.2227 61.0536 39.5793 61.0536 39.938C61.0536 40.3359 61.0423 40.7312 61.0202 41.1235C60.9762 41.9012 61.5751 42.5853 62.354 42.5853H76.5654C77.2793 42.5853 77.858 42.0066 77.858 41.2927V38.7074C77.858 37.9934 77.2793 37.4147 76.5654 37.4147H62.3606ZM60.6838 48.7424C60.0114 48.3542 59.1535 48.6441 58.8003 49.3355C58.4576 50.0061 58.0794 50.6556 57.6682 51.2814C57.24 51.9331 57.416 52.8263 58.0913 53.2161L70.4236 60.3362C71.0418 60.6931 71.8324 60.4813 72.1894 59.863L73.482 57.6241C73.839 57.0058 73.6272 56.2152 73.0089 55.8583L60.6838 48.7424ZM53.578 57.7048C53.1892 57.0313 52.2994 56.8541 51.6479 57.2787C51.0206 57.6875 50.3697 58.0632 49.6977 58.4032C49.003 58.7548 48.7104 59.6151 49.0997 60.2893L56.2292 72.638C56.5861 73.2563 57.3767 73.4681 57.995 73.1112L60.2339 71.8185C60.8522 71.4615 61.064 70.671 60.7071 70.0527L53.578 57.7048ZM42.9562 61.9244C42.9562 61.147 42.2747 60.5487 41.4984 60.5904C41.1252 60.6104 40.7493 60.6206 40.371 60.6206C39.9927 60.6206 39.6167 60.6104 39.2434 60.5903C38.4671 60.5486 37.7856 61.147 37.7856 61.9244V76.1945C37.7856 76.9084 38.3643 77.4871 39.0782 77.4871H41.6636C42.3775 77.4871 42.9562 76.9084 42.9562 76.1945V61.9244ZM31.6422 60.2893C32.0315 59.615 31.7388 58.7547 31.0441 58.4032C30.3722 58.0631 29.7213 57.6874 29.094 57.2786C28.4424 56.854 27.5527 57.0312 27.1638 57.7047L20.0347 70.0527C19.6778 70.6709 19.8896 71.4615 20.5079 71.8185L22.7468 73.1111C23.3651 73.4681 24.1557 73.2563 24.5126 72.638L31.6422 60.2893ZM22.6507 53.2161C23.326 52.8262 23.502 51.933 23.0738 51.2813C22.6626 50.6555 22.2844 50.006 21.9417 49.3354C21.5885 48.644 20.7306 48.3541 20.0582 48.7423L7.73294 55.8583C7.11467 56.2152 6.90284 57.0058 7.25979 57.6241L8.55245 59.863C8.90941 60.4813 9.69999 60.6931 10.3183 60.3362L22.6507 53.2161ZM18.388 42.5853C19.1669 42.5853 19.7658 41.9012 19.7219 41.1235C19.6997 40.7312 19.6885 40.3359 19.6885 39.938C19.6885 39.5793 19.6976 39.2227 19.7157 38.8684C19.7551 38.0936 19.1572 37.4147 18.3814 37.4147H4.17645C3.46253 37.4147 2.88379 37.9934 2.88379 38.7074V41.2927C2.88379 42.0066 3.46253 42.5853 4.17645 42.5853H18.388ZM20.0094 31.2296C20.6842 31.6192 21.5451 31.3258 21.8962 30.6302C22.2356 29.9579 22.6106 29.3066 23.0188 28.6789C23.4424 28.0274 23.2648 27.1386 22.5919 26.75L10.3183 19.6638C9.69999 19.3069 8.90941 19.5187 8.55245 20.137L7.25979 22.3759C6.90284 22.9942 7.11467 23.7848 7.73294 24.1417L20.0094 31.2296ZM27.1119 22.2053C27.5015 22.8801 28.3937 23.0565 29.0454 22.6292C29.6716 22.2186 30.3214 21.8411 30.9924 21.4991C31.6847 21.1463 31.9753 20.2878 31.5868 19.6149L24.5126 7.36206C24.1557 6.74379 23.3651 6.53195 22.7468 6.88891L20.5079 8.18157C19.8896 8.53853 19.6778 9.3291 20.0347 9.94737L27.1119 22.2053Z" fill="#80ABFF"/>
<path d="M178.993 26.9932V51.9984C178.993 56.9054 179.094 60.804 179.295 63.6944C179.497 66.5848 179.9 68.7358 180.505 70.1474C181.177 71.559 182.152 72.5 183.429 72.9705C184.774 73.3738 186.588 73.5755 188.874 73.5755L189.076 74.7854H162.054L162.255 73.5755C164.541 73.5755 166.322 73.3738 167.599 72.9705C168.944 72.5 169.918 71.559 170.523 70.1474C171.128 68.7358 171.498 66.5848 171.632 63.6944C171.834 60.804 171.935 56.9054 171.935 51.9984V9.34844L143.703 73.7772L114.564 19.2295V51.7968C114.564 56.7037 114.699 60.636 114.967 63.5936C115.303 66.484 115.875 68.6686 116.681 70.1474C117.488 71.559 118.597 72.5 120.009 72.9705C121.488 73.3738 123.37 73.5755 125.655 73.5755L125.857 74.7854H101.053L101.255 73.5755C103.54 73.5755 105.389 73.3738 106.8 72.9705C108.212 72.5 109.287 71.559 110.027 70.1474C110.833 68.6686 111.371 66.484 111.64 63.5936C111.909 60.636 112.043 56.7037 112.043 51.7968V27.0941C112.043 22.1199 111.909 18.1876 111.64 15.2973C111.371 12.4069 110.833 10.2559 110.027 8.8443C109.287 7.3655 108.212 6.42444 106.8 6.02113C105.389 5.55061 103.54 5.31534 101.255 5.31534L101.053 4.20624H114.564L145.72 62.9886L171.431 4.20624H189.076L188.874 5.31534C186.588 5.31534 184.774 5.55061 183.429 6.02113C182.152 6.42444 181.177 7.3655 180.505 8.8443C179.9 10.2559 179.497 12.4069 179.295 15.2973C179.094 18.1876 178.993 22.0863 178.993 26.9932Z" fill="white"/>
<path d="M205.272 26.0858V58.1489C205.272 61.6443 205.339 64.4338 205.473 66.5176C205.608 68.5341 205.944 70.0465 206.482 71.0548C207.019 72.0631 207.86 72.7353 209.002 73.0714C210.145 73.4074 211.725 73.5755 213.741 73.5755L213.943 74.7854H189.341L189.543 73.5755C191.626 73.5755 193.24 73.4074 194.382 73.0714C195.592 72.7353 196.466 72.0631 197.004 71.0548C197.542 69.9793 197.878 68.3997 198.012 66.3159C198.147 64.2322 198.214 61.4426 198.214 57.9472V49.8811C198.214 44.9741 198.113 41.0755 197.911 38.1851C197.777 35.2947 197.374 33.1437 196.701 31.7321C196.029 30.3205 195.021 29.4131 193.677 29.0098C192.399 28.5393 190.585 28.304 188.232 28.304L188.03 27.1949C188.03 27.1949 188.87 27.0941 190.551 26.8924C192.299 26.6908 194.483 26.5227 197.105 26.3883C199.726 26.1866 202.449 26.0858 205.272 26.0858ZM195.693 9.9534C195.693 8.40738 196.265 7.06302 197.407 5.92031C198.55 4.77759 199.894 4.20624 201.44 4.20624C202.986 4.20624 204.331 4.77759 205.473 5.92031C206.616 7.06302 207.187 8.40738 207.187 9.9534C207.187 11.4994 206.616 12.8438 205.473 13.9865C204.331 15.1292 202.986 15.7006 201.44 15.7006C199.894 15.7006 198.55 15.1292 197.407 13.9865C196.265 12.8438 195.693 11.4994 195.693 9.9534Z" fill="white"/>
<path d="M245.036 25.5816C246.582 25.5816 248.028 25.9513 249.372 26.6908C250.716 27.3629 251.388 28.3712 251.388 29.7156C251.388 31.0599 250.952 32.1018 250.078 32.8412C249.204 33.5134 248.296 33.8495 247.355 33.8495C246.347 33.8495 245.473 33.6478 244.734 33.2445C244.062 32.774 243.289 32.3371 242.415 31.9338C241.608 31.4632 240.432 31.228 238.886 31.228C237.071 31.228 235.491 32.4043 234.147 34.7569C232.803 37.0424 231.761 40.0336 231.021 43.7306C230.349 47.4276 230.013 51.2926 230.013 55.3257C230.013 59.5605 230.08 62.9214 230.215 65.4085C230.416 67.8956 230.786 69.7104 231.324 70.8532C231.862 71.9959 232.702 72.7353 233.844 73.0714C234.987 73.4074 236.567 73.5755 238.583 73.5755L238.785 74.7854H214.284L214.486 73.5755C216.435 73.5755 217.981 73.4074 219.124 73.0714C220.266 72.7353 221.107 71.9959 221.644 70.8532C222.182 69.7104 222.518 67.8956 222.653 65.4085C222.854 62.9214 222.955 59.5605 222.955 55.3257V49.4777C222.955 44.5708 222.854 40.7058 222.653 37.8826C222.518 34.9922 222.115 32.8748 221.443 31.5305C220.838 30.1861 219.863 29.3459 218.519 29.0098C217.242 28.6065 215.46 28.4048 213.175 28.4048L212.973 27.2957C212.973 27.2957 213.813 27.1949 215.494 26.9932C217.174 26.7916 219.292 26.5899 221.846 26.3883C224.468 26.1866 227.19 26.0858 230.013 26.0858V40.9074C230.752 36.1349 232.399 32.4043 234.954 29.7156C237.575 26.9596 240.936 25.5816 245.036 25.5816Z" fill="white"/>
<path d="M290.143 49.2761H257.072V50.9902C257.072 56.0315 257.811 60.1655 259.29 63.3919C260.769 66.6184 262.718 69.0047 265.138 70.5507C267.558 72.0967 270.146 72.8697 272.902 72.8697C275.725 72.8697 278.447 72.2647 281.069 71.0548C283.757 69.7777 285.875 67.6939 287.421 64.8035L288.933 65.6101C287.051 69.3071 284.531 71.9286 281.371 73.4747C278.279 75.0207 274.952 75.7937 271.389 75.7937C267.625 75.7937 264.063 74.8863 260.702 73.0714C257.341 71.1892 254.618 68.3997 252.535 64.7027C250.451 61.0057 249.409 56.4348 249.409 50.9902C249.409 46.4193 250.249 42.2518 251.93 38.4876C253.61 34.7233 255.996 31.7321 259.088 29.5139C262.248 27.2285 266.045 26.0858 270.482 26.0858C274.851 26.0858 278.481 27.1277 281.371 29.2114C284.262 31.2952 286.446 34.0848 287.925 37.5801C289.404 41.0755 290.143 44.9741 290.143 49.2761ZM270.583 28.1023C266.482 28.1023 263.357 29.85 261.206 33.3454C259.055 36.8407 257.744 41.1763 257.273 46.3521H282.38C282.178 40.8402 281.17 36.4374 279.355 33.1437C277.54 29.7828 274.616 28.1023 270.583 28.1023Z" fill="white"/>
<path d="M307.399 26.0858V44.1339C307.802 41.3107 308.609 38.5212 309.819 35.7652C311.096 32.9421 312.844 30.623 315.062 28.8081C317.347 26.9932 320.137 26.0858 323.43 26.0858C328.606 26.0858 332.471 27.4974 335.026 30.3205C337.58 33.0765 338.857 37.0424 338.857 42.2182V58.1489C338.857 62.7197 339.025 66.1143 339.361 68.3325C339.697 70.5507 340.47 71.9959 341.68 72.6681C342.89 73.273 344.806 73.5755 347.427 73.5755L347.629 74.7854H323.128L323.33 73.5755C325.413 73.5755 327.027 73.4074 328.169 73.0714C329.312 72.7353 330.119 72.0295 330.589 70.954C331.127 69.8785 331.463 68.2653 331.597 66.1143C331.732 63.8961 331.799 60.9385 331.799 57.2415V43.2264C331.799 38.8573 331.127 35.4291 329.783 32.9421C328.438 30.455 325.918 29.2114 322.221 29.2114C319.868 29.2114 317.818 29.9172 316.07 31.3288C314.39 32.7404 312.978 34.5889 311.835 36.8743C310.76 39.0925 309.886 41.5124 309.214 44.1339C308.542 46.7554 308.071 49.3097 307.802 51.7968C307.533 54.2166 307.399 56.334 307.399 58.1489C307.399 61.6443 307.466 64.4338 307.601 66.5176C307.735 68.5341 308.071 70.0465 308.609 71.0548C309.147 72.0631 309.987 72.7353 311.13 73.0714C312.272 73.4074 313.852 73.5755 315.868 73.5755L316.07 74.7854H291.468L291.67 73.5755C293.754 73.5755 295.367 73.4074 296.51 73.0714C297.719 72.7353 298.593 72.0631 299.131 71.0548C299.669 69.9793 300.005 68.3997 300.139 66.3159C300.274 64.2322 300.341 61.4426 300.341 57.9472V49.8811C300.341 44.9741 300.24 41.0755 300.038 38.1851C299.904 35.2947 299.501 33.1437 298.829 31.7321C298.156 30.3205 297.148 29.4131 295.804 29.0098C294.527 28.5393 292.712 28.304 290.359 28.304L290.157 27.1949C290.157 27.1949 290.998 27.0941 292.678 26.8924C294.426 26.6908 296.61 26.5227 299.232 26.3883C301.853 26.1866 304.576 26.0858 307.399 26.0858Z" fill="white"/>
</svg>
